<?xml version="1.0" encoding="UTF-8"?>
<svg version="1.1" xmlns="http://www.w3.org/2000/svg" width="512" height="512">
<path d="M0 0 C12.82483039 11.7996177 17.10636168 29.07429058 22.38549805 45.1159668 C23.15744726 47.43543234 23.930331 49.75458704 24.70407104 52.07345581 C26.35915933 57.04050628 28.00787481 62.00962164 29.65067101 66.98074913 C32.02982182 74.1799626 34.42109716 81.37510403 36.81524787 88.56934104 C40.70599603 100.26171963 44.58759853 111.95711225 48.46313477 123.65454102 C52.21550395 134.98013733 55.97141884 146.30454602 59.73266602 157.62719727 C59.96453799 158.32521765 60.19640996 159.02323804 60.43530836 159.74241056 C62.74396945 166.69210381 65.0531878 173.64161186 67.36251911 180.59108242 C68.26248361 183.29935972 69.16242035 186.00764624 70.06233975 188.71593853 C70.50661615 190.05297622 70.9509021 191.39001075 71.39519773 192.72704206 C74.21109242 201.20122465 77.02407469 209.67636639 79.83375013 218.15261304 C81.44578719 223.01537097 83.05895437 227.87775361 84.67225266 232.74009323 C85.41776131 234.98803864 86.16271857 237.23616699 86.90707207 239.48449516 C87.92638615 242.56323216 88.94762933 245.64132314 89.96928406 248.71928406 C90.26024277 249.59984787 90.55120148 250.48041169 90.85097712 251.38765925 C92.66408888 256.84211817 94.60297167 262.23342961 96.64803725 267.60560256 C97.40234375 269.9453125 97.40234375 269.9453125 97.40234375 272.9453125 C98.06234375 272.9453125 98.72234375 272.9453125 99.40234375 272.9453125 C99.51684246 272.38902098 99.63134117 271.83272945 99.74930954 271.25958061 C100.86612343 266.01435085 102.25516742 260.97067994 103.97753906 255.89501953 C104.22876022 255.1425016 104.47998138 254.38998367 104.73881531 253.61466217 C105.56515831 251.1427179 106.39781942 248.6729514 107.23046875 246.203125 C107.81714843 244.45159285 108.40338182 242.69991116 108.98919678 240.9480896 C110.22911986 237.24264345 111.47163868 233.53808287 112.71630859 229.83422852 C115.64505844 221.11813479 118.55977118 212.39734685 121.47536469 203.67684555 C122.38695882 200.95206458 123.30012559 198.22781553 124.21368408 195.50369263 C128.90335362 181.50803669 133.48108364 167.47723725 138.02377319 153.43327332 C145.55127636 130.16295109 153.36303532 106.98459498 161.10546875 83.78515625 C161.39571804 82.91521971 161.68596733 82.04528316 161.98501205 81.14898491 C163.42903294 76.82177762 164.87496595 72.4952264 166.32476807 68.16995239 C168.88317117 60.53201252 171.42928305 52.89120608 173.90772438 45.22688007 C174.9768266 41.92256605 176.05445942 38.62106025 177.13250351 35.31965446 C177.63152771 33.78269085 178.12619751 32.24430499 178.61600113 30.70437813 C183.46180072 15.47318919 189.65487787 2.22094731 204.46484375 -5.4921875 C216.77419378 -11.08875596 228.43463158 -11.77417087 241.3984375 -7.3125 C252.1481946 -2.81130132 260.45465437 4.91702396 265.39453125 15.453125 C267.42016102 20.46224048 268.74176388 25.04589427 269.21484375 30.4453125 C269.32441406 31.528125 269.43398438 32.6109375 269.546875 33.7265625 C269.6386137 47.44063276 263.45097688 61.35860962 259.08984375 74.1328125 C257.77762211 78.00007949 256.47005089 81.86890519 255.1640625 85.73828125 C254.80932861 86.78798096 254.45459473 87.83768066 254.08911133 88.91918945 C250.60319023 99.27260617 247.22554159 109.66046201 243.8515625 120.05078125 C238.8244089 135.53043287 233.76322147 150.99832504 228.66015625 166.453125 C228.33278284 167.44472815 228.00540943 168.43633129 227.66811562 169.45798302 C224.9333794 177.740403 222.19609232 186.02197937 219.45860291 194.30348969 C216.9157242 201.99637002 214.3734428 209.68944734 211.83203125 217.3828125 C211.47374237 218.46730808 211.11545349 219.55180367 210.74630737 220.66916275 C206.12394873 234.66330424 201.52505622 248.66482193 196.95908737 262.67746353 C196.11012718 265.28205202 195.26017438 267.8863142 194.40982056 270.490448 C194.13758604 271.32419008 193.86535152 272.15793217 193.58486748 273.01693916 C193.04825987 274.66028616 192.51161528 276.30362109 191.97493172 277.94694328 C190.44986747 282.61899831 188.93175101 287.29323753 187.41889 291.96925735 C186.49345943 294.8242769 185.56165701 297.67718719 184.6281395 300.52957153 C184.0084535 302.429811 183.3967513 304.33264848 182.78543091 306.2355957 C176.88721216 324.2010392 167.97702281 337.80193793 151.07250977 346.83105469 C137.89660583 353.44352659 122.18590976 359.12400328 107.40234375 359.9453125 C106.72494141 359.98624023 106.04753906 360.02716797 105.34960938 360.06933594 C79.9495933 361.40676063 55.6373857 354.52830924 36.27734375 337.6328125 C34.63474619 336.0888227 33.00941214 334.5262497 31.40234375 332.9453125 C30.64050781 332.19636719 29.87867188 331.44742187 29.09375 330.67578125 C17.11971123 318.16218441 11.39217508 303.63069858 6.15234375 287.4453125 C5.48036993 285.4157803 4.80664942 283.38682574 4.13134766 281.35839844 C2.66522506 276.94570289 1.20955318 272.52973684 -0.23925781 268.11132812 C-2.73205967 260.51974466 -5.2682444 252.94294307 -7.80859375 245.3671875 C-15.70563326 221.8023925 -23.54885147 198.22114088 -31.19726562 174.57427979 C-36.73213886 157.47191054 -42.4241308 140.42265245 -48.11871338 123.37298584 C-63.46962916 77.41155654 -63.46962916 77.41155654 -68.28485107 62.6762085 C-68.77685715 61.17233408 -69.27080844 59.66909437 -69.76690674 58.16656494 C-70.42330047 56.1766755 -71.07226154 54.1845319 -71.71875 52.19140625 C-72.06349365 51.13622803 -72.4082373 50.0810498 -72.76342773 48.99389648 C-75.86928807 37.64391755 -75.32493751 25.86166207 -70.2734375 15.1328125 C-68.82389112 12.63700561 -67.28146388 10.28854233 -65.59765625 7.9453125 C-65.15679687 7.30980469 -64.7159375 6.67429687 -64.26171875 6.01953125 C-57.78591556 -2.42147233 -47.43672397 -7.68687396 -37.16015625 -9.7421875 C-23.73233748 -10.92006634 -10.80201089 -8.54414696 0 0 Z " fill="#01CD9F" transform="translate(158.59765625,81.0546875)"/>
<path d="M0 0 C9.40661461 7.71092507 15.56477809 16.61228907 17.578125 28.84375 C17.67480469 29.9471875 17.77148438 31.050625 17.87109375 32.1875 C17.98066406 33.2703125 18.09023438 34.353125 18.203125 35.46875 C18.2948637 49.18282026 12.10722688 63.10079712 7.74609375 75.875 C6.43387211 79.74226699 5.12630089 83.61109269 3.8203125 87.48046875 C3.46557861 88.53016846 3.11084473 89.57986816 2.74536133 90.66137695 C-0.74055977 101.01479367 -4.11820841 111.40264951 -7.4921875 121.79296875 C-12.5193411 137.27262037 -17.58052853 152.74051254 -22.68359375 168.1953125 C-23.01096716 169.18691565 -23.33834057 170.17851879 -23.67563438 171.20017052 C-26.4103706 179.4825905 -29.14765768 187.76416687 -31.88514709 196.04567719 C-34.4280258 203.73855752 -36.9703072 211.43163484 -39.51171875 219.125 C-39.87000763 220.20949558 -40.22829651 221.29399117 -40.59744263 222.41135025 C-45.21980127 236.40549174 -49.81869378 250.40700943 -54.38466263 264.41965103 C-55.23362282 267.02423952 -56.08357562 269.6285017 -56.93392944 272.2326355 C-57.20616396 273.06637758 -57.47839848 273.90011967 -57.75888252 274.75912666 C-58.29549013 276.40247366 -58.83213472 278.04580859 -59.36881828 279.68913078 C-60.89388253 284.36118581 -62.41199899 289.03542503 -63.92486 293.71144485 C-64.85029057 296.5664644 -65.78209299 299.41937469 -66.7156105 302.27175903 C-67.3352965 304.1719985 -67.9469987 306.07483598 -68.55831909 307.9777832 C-70.82504194 314.88201701 -73.47252638 321.30043636 -76.94140625 327.6875 C-77.43382812 328.60144531 -77.92625 329.51539063 -78.43359375 330.45703125 C-83.45693665 337.87852373 -90.69010533 339.57998414 -98.94140625 341.6875 C-99.58335937 341.88472656 -100.2253125 342.08195312 -100.88671875 342.28515625 C-108.48542488 343.77311582 -118.38858124 344.44636974 -125.12890625 340.1875 C-136.86259345 330.51116451 -141.28247267 315.61988156 -145.92773438 301.70996094 C-146.8187081 299.0556425 -147.73500471 296.41092925 -148.65234375 293.765625 C-149.2268284 292.06042328 -149.79979841 290.35471038 -150.37109375 288.6484375 C-150.64492889 287.86802094 -150.91876404 287.08760437 -151.20089722 286.28353882 C-151.44510406 285.53561066 -151.68931091 284.7876825 -151.94091797 284.01708984 C-152.15900116 283.37218597 -152.37708435 282.7272821 -152.60177612 282.06283569 C-153.53541221 275.53308777 -151.38255577 269.29921098 -149.29614258 263.19995117 C-149.02587753 262.3900322 -148.75561249 261.58011322 -148.47715759 260.74565125 C-147.58292583 258.07151637 -146.67815159 255.40107353 -145.7734375 252.73046875 C-145.1350872 250.8273308 -144.49746287 248.92394922 -143.86051941 247.02033997 C-142.17416436 241.98602467 -140.47914525 236.95467117 -138.78192139 231.92401123 C-136.12167724 224.03393841 -133.47468533 216.13940087 -130.82650757 208.24527168 C-130.16326165 206.26852826 -129.49970511 204.29188904 -128.83584595 202.31535149 C-123.79735129 187.3117073 -118.85328467 172.27961606 -113.97135735 157.22436905 C-107.65387121 137.74527079 -101.19044957 118.31609285 -94.6998291 98.894104 C-92.92531297 93.58293824 -91.15290225 88.27106924 -89.38084793 82.95908165 C-87.92895769 78.60746431 -86.4752353 74.25647791 -85.01727295 69.90689087 C-82.45939638 62.27071481 -79.91390087 54.63164304 -77.43602562 46.96906757 C-76.3669234 43.66475355 -75.28929058 40.36324775 -74.21124649 37.06184196 C-73.71222229 35.52487835 -73.21755249 33.98649249 -72.72774887 32.44656563 C-67.88194928 17.21537669 -61.68887213 3.96313481 -46.87890625 -3.75 C-31.34948564 -10.81060559 -14.15560581 -10.38943545 0 0 Z " fill="#009067" transform="translate(409.94140625,79.3125)"/>
</svg>
